<svg width="131" height="29" viewBox="0 0 131 29" fill="none" xmlns="http://www.w3.org/2000/svg">
<path d="M0.8 29L9.88 0.199999H16.94L26.02 29H21.06L12.82 3.16H13.9L5.76 29H0.8ZM5.86 22.76V18.26H20.98V22.76H5.86ZM29.6359 29V0.199999H34.4559V12.32H48.0959V0.199999H52.8959V29H48.0959V16.84H34.4559V29H29.6359ZM65.4231 29V4.72H56.1031V0.199999H79.5631V4.72H70.2431V29H65.4231ZM86.5609 29L90.3609 21.24L80.4209 0.199999H85.8609L92.8809 16.16L100.121 0.199999H105.261L91.7009 29H86.5609ZM116.361 29V4.72H107.041V0.199999H130.501V4.72H121.181V29H116.361Z" fill="#F5F5F5"/>
</svg>
